<?xml version="1.0" standalone="no"?><!DOCTYPE svg PUBLIC "-//W3C//DTD SVG 1.1//EN" "http://www.w3.org/Graphics/SVG/1.1/DTD/svg11.dtd"><svg t="1730192333648" class="icon" viewBox="0 0 1024 1024" version="1.1" xmlns="http://www.w3.org/2000/svg" p-id="16219" xmlns:xlink="http://www.w3.org/1999/xlink" width="300" height="300"><path d="M876.544 223.232l-59.392-71.68c-11.264-14.336-29.184-23.552-49.152-23.552H256c-19.968 0-37.376 9.216-49.664 23.552l-58.88 71.68c-12.288 14.336-19.456 33.792-19.456 54.272v533.504c0 47.104 38.4 85.504 85.504 85.504h597.504c47.104 0 85.504-38.4 85.504-85.504V277.504c-0.512-20.48-7.68-39.936-19.968-54.272zM504.832 739.328l-209.92-209.92c-6.656-6.656-2.048-17.408 7.168-17.408h124.416V436.736c0-5.632 4.608-10.24 10.24-10.24h150.016c5.632 0 10.24 4.608 10.24 10.24V512H721.92c9.216 0 13.824 11.264 7.168 17.408l-209.92 209.92c-4.096 4.096-10.24 4.096-14.336 0zM218.624 213.504l34.816-42.496h512l39.936 42.496H218.624z" p-id="16220"></path></svg>